<?xml version="1.0" encoding="UTF-8"?>
<svg width="31px" height="31px" viewBox="0 0 31 31" version="1.1" xmlns="http://www.w3.org/2000/svg" xmlns:xlink="http://www.w3.org/1999/xlink">
    <!-- Generator: Sketch 52.5 (67469) - http://www.bohemiancoding.com/sketch -->
    <title>search-solid</title>
    <desc>Created with Sketch.</desc>
    <g id="Page-1" stroke="none" stroke-width="1" fill="none" fill-rule="evenodd">
        <g id="iPhone-XS" transform="translate(-318.000000, -232.000000)" fill="#EBEBEB" fill-rule="nonzero">
            <g id="filter" transform="translate(21.000000, 225.000000)">
                <g id="search-solid" transform="translate(297.000000, 7.000000)">
                    <path d="M30.5761719,26.7518519 L24.5396484,20.7270955 C24.2671875,20.4551657 23.8978516,20.3040936 23.5103516,20.3040936 L22.5234375,20.3040936 C24.1945313,18.1709552 25.1875,15.4879142 25.1875,12.5692008 C25.1875,5.62592593 19.5505859,0 12.59375,0 C5.63691406,0 0,5.62592593 0,12.5692008 C0,19.5124756 5.63691406,25.1384016 12.59375,25.1384016 C15.5181641,25.1384016 18.2064453,24.1473684 20.34375,22.4795322 L20.34375,23.4645224 C20.34375,23.8512671 20.4951172,24.219883 20.7675781,24.4918129 L26.8041016,30.5165692 C27.3732422,31.0846004 28.2935547,31.0846004 28.8566406,30.5165692 L30.5701172,28.8064327 C31.1392578,28.2384016 31.1392578,27.319883 30.5761719,26.7518519 Z M12.59375,20.3040936 C8.31308594,20.3040936 4.84375,16.8475634 4.84375,12.5692008 C4.84375,8.29688109 8.30703125,4.83430799 12.59375,4.83430799 C16.8744141,4.83430799 20.34375,8.29083821 20.34375,12.5692008 C20.34375,16.8415205 16.8804688,20.3040936 12.59375,20.3040936 Z" id="Shape"></path>
                </g>
            </g>
        </g>
    </g>
</svg>